HIERARCHY
ROOT Hips
{
    OFFSET 0.000000 0.000000 0.000000
    CHANNELS 6 Xposition Yposition Zposition Zrotation Xrotation Yrotation
    JOINT Spine
    {
        OFFSET -0.000000 7.384703 0.000000
        CHANNELS 3 Zrotation Xrotation Yrotation
        JOINT Spine1
        {
            OFFSET -0.000000 22.520039 0.000000
            CHANNELS 3 Zrotation Xrotation Yrotation
            JOINT Neck
            {
                OFFSET -0.000000 22.427553 2.038868
                CHANNELS 3 Zrotation Xrotation Yrotation
                JOINT Head
                {
                    OFFSET -0.000000 12.608030 -1.801147
                    CHANNELS 3 Zrotation Xrotation Yrotation
                    End Site
                    {
                        OFFSET -0.000000 22.514339 0.000000
                    }
                }
            }
            JOINT LeftShoulder
            {
                OFFSET 3.702039 19.556332 -0.329131
                CHANNELS 3 Zrotation Xrotation Yrotation
                JOINT LeftArm
                {
                    OFFSET 13.708566 0.000000 0.000000
                    CHANNELS 3 Zrotation Xrotation Yrotation
                    JOINT LeftForeArm
                    {
                        OFFSET 25.930668 0.000000 0.000000
                        CHANNELS 3 Zrotation Xrotation Yrotation
                        JOINT LeftHand
                        {
                            OFFSET 23.509682 0.000000 0.000000
                            CHANNELS 3 Zrotation Xrotation Yrotation
                            End Site
                            {
                                OFFSET 13.508604 0.000000 0.000000
                            }
                        }
                    }
                }
            }
            JOINT RightShoulder
            {
                OFFSET -3.486946 19.556332 -0.329131
                CHANNELS 3 Zrotation Xrotation Yrotation
                JOINT RightArm
                {
                    OFFSET -13.708566 0.000000 0.000000
                    CHANNELS 3 Zrotation Xrotation Yrotation
                    JOINT RightForeArm
                    {
                        OFFSET -25.930668 0.000000 0.000000
                        CHANNELS 3 Zrotation Xrotation Yrotation
                        JOINT RightHand
                        {
                            OFFSET -23.509682 0.000000 0.000000
                            CHANNELS 3 Zrotation Xrotation Yrotation
                            End Site
                            {
                                OFFSET -13.508604 0.000000 0.000000
                            }
                        }
                    }
                }
            }
        }
    }
    JOINT LeftUpLeg
    {
        OFFSET 9.005735 0.000000 0.000000
        CHANNELS 3 Zrotation Xrotation Yrotation
        JOINT LeftLeg
        {
            OFFSET -0.000000 -37.338741 0.000000
            CHANNELS 3 Zrotation Xrotation Yrotation
            JOINT LeftFoot
            {
                OFFSET -0.000000 -36.154961 0.000000
                CHANNELS 3 Zrotation Xrotation Yrotation
                JOINT LeftToeBase
                {
                    OFFSET -0.000000 -5.853728 13.508604
                    CHANNELS 3 Zrotation Xrotation Yrotation
                    End Site
                    {
                        OFFSET -0.000000 0.000000 3.602294
                    }
                }
            }
        }
    }
    JOINT RightUpLeg
    {
        OFFSET -9.005735 0.000000 0.000000
        CHANNELS 3 Zrotation Xrotation Yrotation
        JOINT RightLeg
        {
            OFFSET -0.000000 -37.338741 0.000000
            CHANNELS 3 Zrotation Xrotation Yrotation
            JOINT RightFoot
            {
                OFFSET -0.000000 -36.154961 0.000000
                CHANNELS 3 Zrotation Xrotation Yrotation
                JOINT RightToeBase
                {
                    OFFSET -0.000000 -5.853728 13.508604
                    CHANNELS 3 Zrotation Xrotation Yrotation
                    End Site
                    {
                        OFFSET -0.000000 0.000000 3.602294
                    }
                }
            }
        }
    }
}
MOTION
Frames:    5
Frame Time:    0.004000
31.924210    79.873428    -21.199068    4.276209    0.027192    7.711145    -2.403796    -5.035500    1.505220    -4.644935    6.129252    1.859843    -0.361697    20.233715    -25.291147    21.026905    -6.065934    -22.465221    -1.772280    9.100911    -8.887230    -67.143929    42.040871    -12.334503    -0.229427    3.222455    -0.208099    -10.317098    3.847902    -6.937338    2.836119    8.786634    5.467458    38.153435    45.188866    44.403481    8.915358    4.982217    24.334044    -15.540865    1.966954    8.009295    10.917363    -26.223057    8.625277    -15.591366    52.141857    34.617012    -8.968220    3.165095    -5.698208    0.000000    0.000000    0.000000    -5.850286    -3.523108    0.545991    10.293014    21.752182    -4.486802    -7.091610    -17.555870    -21.708946    0.000000    0.000000    0.000000    
31.924952    79.879265    -20.993248    4.309563    0.009486    7.424900    -2.348182    -5.100863    1.439121    -4.703448    6.248887    1.800724    -0.466739    20.112162    -25.205912    21.012924    -6.014461    -22.390263    -1.768224    8.992152    -8.793200    -66.947624    42.160736    -12.358764    -0.262491    3.121196    -0.289716    -10.218965    3.739258    -6.923369    2.736624    8.807978    5.572804    38.358761    45.032890    44.238628    8.980845    4.917246    24.244976    -15.654474    1.888110    7.999756    10.838377    -26.306498    8.612864    -15.520720    51.385170    34.689072    -8.555316    2.949558    -5.858745    0.000000    0.000000    0.000000    -5.854716    -3.313930    0.693444    10.245421    21.598072    -4.345023    -7.110229    -17.590069    -21.690369    0.000000    0.000000    0.000000    
31.922495    79.883148    -20.791502    4.339691    0.006662    7.146221    -2.423726    -5.042240    1.422820    -4.573365    6.089745    1.773025    -0.585670    20.108524    -25.142965    21.008799    -5.888695    -22.351543    -1.838473    9.054294    -8.911067    -66.767937    42.083652    -12.356839    -0.304783    3.135261    -0.275884    -10.052065    3.760358    -7.119388    2.741243    8.858526    5.456623    38.322140    45.104710    44.139503    9.076984    4.725881    24.137859    -16.042376    1.657197    7.995781    10.780636    -26.378994    8.624646    -15.509235    50.582088    34.478680    -8.472787    2.825020    -5.502733    0.000000    0.000000    0.000000    -5.859614    -3.122492    0.884163    10.239223    21.429329    -4.288380    -7.139961    -17.632521    -21.702133    0.000000    0.000000    0.000000    
31.934258    79.894081    -20.581596    4.379080    -0.035275    6.843965    -2.352096    -5.063605    1.377428    -4.663001    6.152460    1.732275    -0.685658    20.023602    -25.072073    21.022970    -5.796379    -22.293650    -1.798680    9.007408    -8.883980    -66.592484    42.125801    -12.394278    -0.328980    3.051234    -0.313016    -9.939860    3.673549    -7.169383    2.710087    8.838539    5.475948    38.396904    45.103592    44.049599    9.063986    4.659491    24.031073    -15.986738    1.607804    7.984498    10.706799    -26.380156    8.593747    -15.430433    49.745197    34.485493    -8.456243    2.798772    -5.518466    0.000000    0.000000    0.000000    -5.883760    -2.907304    0.956105    10.177206    21.319944    -4.113068    -7.134500    -17.648287    -21.651463    0.000000    0.000000    0.000000    
31.927935    79.890076    -20.374125    4.382120    -0.036230    6.488358    -2.318144    -5.115851    1.374929    -4.722136    6.190098    1.734049    -0.558114    19.970066    -25.049744    20.880409    -5.826829    -22.285782    -1.681272    8.924933    -8.887387    -66.540375    42.249069    -12.410739    -0.231298    2.978372    -0.289853    -10.214205    3.625796    -7.253017    2.740766    8.950965    5.357152    38.150787    45.134991    44.262283    9.010194    4.506366    23.925076    -15.839210    1.486011    7.977032    10.723067    -26.425333    8.657788    -15.330408    48.966492    34.431835    -8.407097    2.707875    -5.583979    0.000000    0.000000    0.000000    -5.856780    -2.762701    1.184931    10.153148    21.216198    -3.999790    -7.147402    -17.697407    -21.653744    0.000000    0.000000    0.000000    
